<?xml version="1.0" encoding="UTF-8" standalone="no"?>
<!-- Generator: Adobe Illustrator 19.2.1, SVG Export Plug-In . SVG Version: 6.00 Build 0)  -->

<svg
   version="1.1"
   id="layer"
   x="0px"
   y="0px"
   viewBox="0 0 652 652"
   style="enable-background:new 0 0 652 652;"
   xml:space="preserve"
   sodipodi:docname="stealie.svg"
   inkscape:version="1.1 (c68e22c387, 2021-05-23)"
   xmlns:inkscape="http://www.inkscape.org/namespaces/inkscape"
   xmlns:sodipodi="http://sodipodi.sourceforge.net/DTD/sodipodi-0.dtd"
   xmlns="http://www.w3.org/2000/svg"
   xmlns:svg="http://www.w3.org/2000/svg"><defs
   id="defs213" /><sodipodi:namedview
   id="namedview211"
   pagecolor="#ffffff"
   bordercolor="#666666"
   borderopacity="1.0"
   inkscape:pageshadow="2"
   inkscape:pageopacity="0.0"
   inkscape:pagecheckerboard="0"
   showgrid="false"
   inkscape:zoom="1.154908"
   inkscape:cx="326"
   inkscape:cy="327.73174"
   inkscape:window-width="1440"
   inkscape:window-height="1033"
   inkscape:window-x="-4"
   inkscape:window-y="-4"
   inkscape:window-maximized="1"
   inkscape:current-layer="layer" />
<style
   type="text/css"
   id="style2">
	.st0{fill:#EC1C24;}
	.st1{fill:#0054A5;}
	.st2{fill:#FFFFFF;}
	.st3{fill:#005AA9;}
	.st4{fill:#000510;}
	.st5{fill:#231F20;}
</style>



















































<path
   class="st2"
   d="m 325.23453,10.112125 c -84.71638,0 -164.34251,33.086655 -224.3348,93.078945 -59.992293,59.99229 -93.0789505,139.61842 -93.0789505,224.33481 0,84.71639 33.0866575,164.70611 93.0789505,224.33481 59.99229,59.99229 139.61842,93.07895 224.3348,93.07895 84.71638,0 164.34251,-33.08666 224.3348,-93.07895 59.99229,-59.99229 93.07894,-139.61842 93.07894,-224.33481 0,-84.71639 -33.08665,-164.34252 -93.07894,-224.33481 C 489.57704,42.835191 409.95091,10.112125 325.23453,10.112125"
   id="path106"
   style="stroke-width:3.6359" />
<path
   class="st0"
   d="m 325.23453,640.21297 c 173.06866,0 313.05067,-139.98201 313.05067,-313.05068 0,-172.70508 -140.3456,-313.050679 -313.05067,-313.050679 91.98817,1.090769 173.43225,48.35742 212.33634,132.710219 0,0 59.99229,82.53484 -13.45282,233.78814 l -11.27128,79.98972 -19.27025,17.81589 -21.81537,14.54359 -6.54462,35.26819 -48.72101,23.99692 -11.99846,26.54204 -2.54512,17.4523 -17.8159,22.54256 -7.99897,10.5441 -50.90254,10.90769"
   id="path108"
   style="stroke-width:3.6359" />
<path
   class="st3"
   d="m 427.7668,60.651083 c 65.80972,35.631784 110.53125,105.440997 110.53125,185.794307 0,116.71228 -94.53331,211.24558 -211.24557,211.24558 -40.72204,0 -78.53536,-11.27128 -110.53125,-31.26871"
   id="path110"
   style="stroke-width:3.6359" />
<path
   class="st0"
   d="M 216.15764,426.42226 C 155.80176,389.33612 115.44331,322.43562 115.44331,246.44539 c 0,-116.71228 94.53331,-211.245582 211.24558,-211.245582 36.35895,0 70.89997,9.453331 100.71432,25.451275"
   id="path112"
   style="stroke-width:3.6359" />
<polyline
   class="st2"
   points="138.2,249.1 120.4,257.7 127.1,259.2 102.9,270.7 118.6,273.3 88.8,291.1 107.9,289.5 80.5,310.2   97.2,309.3 79.4,325.3 92.5,324.5 80,349.5 102.1,342.2 95.6,339.4 113.4,331.5 105.8,328.9 132.7,315.1 112.8,315.1 140,297.1   117.3,298.1 143.6,280.7 124.8,278.5 142.3,262.9 130.9,265.2 138.2,249.1 "
   id="polyline114"
   transform="matrix(3.6358964,0,0,3.6358964,-71.80535,-845.05069)" />
<path
   class="st4"
   d="m 428.85757,57.378776 -64.35537,31.268709 -9.08974,4.363075 9.81692,2.181538 24.36051,5.817432 -0.72718,-6.908201 -87.98868,41.812811 -5.81744,3.63589 6.54462,2.90872 56.71997,9.45333 -1.09077,-6.54461 -107.98611,64.35536 -8.72615,6.18103 10.5441,0.72718 69.44562,-5.81744 -2.54513,-6.54461 -99.62356,75.26305 -7.63538,5.81744 9.81692,0.36359 60.71947,-2.90872 -2.54513,-6.18102 -64.35537,57.81075 -5.09025,6.18102 h 7.99897 l 47.63024,-2.90871 -3.63589,-5.09026 -45.44871,90.89742 1.45436,4.36307 2.90872,0.72718 80.7169,-26.54204 8.72615,-2.90872 -8.72615,-3.63589 -23.63333,-10.5441 v 6.54461 l 64.35537,-28.35999 8.36256,-3.6359 -8.72615,-2.90872 -27.26923,-9.45333 0.36359,6.54462 97.80561,-50.17538 8.36256,-5.09025 -10.18051,-1.81795 h -71.99074 l 1.81795,6.54461 98.53278,-65.44613 8.72615,-6.54462 h -10.90769 l -82.53485,3.6359 2.18154,6.54461 95.98767,-63.62818 5.81743,-4.36308 -7.27179,-2.18154 -68.35485,-7.63538 1.81794,6.18102 63.62819,-57.08357 8.36256,-6.9082 -11.63487,0.72718 -41.81281,8.72615 3.99949,5.09025 26.54204,-58.901518 -1.09076,-2.181538 -3.27231,-1.817948 m -23.99692,65.446134 41.81281,-8.72615 -3.27231,-6.18102 -63.62818,56.71998 -6.18103,5.45384 7.99898,1.09077 68.35485,7.63538 -1.45436,-6.54461 -95.62408,63.62819 -10.90767,7.27179 95.62406,-4.36308 -2.18154,-6.54461 -108.71329,71.99075 h 83.9892 l -1.81795,-6.9082 -97.8056,50.17537 -7.63539,3.99949 7.99898,2.90872 27.26922,9.45333 -0.36359,-6.54462 -64.35537,28.36 -7.27179,3.2723 7.27179,3.27231 23.63333,10.5441 0.36359,-6.54462 -80.7169,26.54205 4.36308,5.09025 45.4487,-90.89741 2.54513,-5.45385 -6.18103,0.36359 -47.63024,2.90872 2.54513,6.18102 64.35537,-57.81075 7.63538,-6.9082 -10.18051,0.36359 -60.71947,2.90871 2.18154,6.54462 99.62356,-75.26306 9.81692,-7.27179 -12.36205,1.09077 -69.44562,5.81743 2.18154,6.54462 107.98611,-64.35537 8.36256,-5.09025 -9.81692,-1.81795 -57.08356,-9.45333 1.09077,6.9082 87.98868,-41.81281 9.45333,-4.363074 -34.54102,-7.998972 0.72718,6.544614 64.35537,-31.268709 -4.72667,-4.726665 -26.54204,58.901526 -2.90872,6.54461 z"
   id="path116"
   style="stroke-width:3.6359" />
<path
   class="st5"
   d="m 425.94885,63.5598 c 64.71896,35.268195 108.7133,103.98664 108.7133,182.522 -0.36359,114.89433 -93.07894,207.60969 -207.60967,207.60969 -39.99486,0 -77.081,-11.27128 -108.7133,-30.54153 l -3.6359,6.18102 c 32.72307,20.36102 71.26357,31.6323 112.3492,31.6323 118.8938,0 214.88147,-95.98766 214.88147,-214.88148 0,-81.44408 -45.44871,-152.70765 -112.3492,-189.066614 l -3.6359,6.544614"
   id="path118"
   style="stroke-width:3.6359" />
<path
   class="st5"
   d="M 218.33918,423.51355 C 159.07407,386.79099 119.4428,321.34485 119.4428,246.44539 119.80639,131.55106 212.52175,38.835705 327.05248,38.472115 c 35.99536,0 69.44561,9.089741 99.25996,25.087685 l 3.27231,-6.181024 C 399.04322,41.017242 364.13861,31.563912 327.05248,31.563912 c -118.53022,0 -214.88147,95.987668 -214.88147,214.881478 0,77.44459 41.08562,145.07227 102.16868,183.24918 l 3.99949,-6.18102"
   id="path120"
   style="stroke-width:3.6359" />
<path
   class="st3"
   d="M 325.23453,640.21297 C 152.16587,640.21297 12.183855,500.23096 12.183855,327.16229 12.183855,154.45721 152.52946,14.111611 325.23453,14.111611 160.52843,21.383402 77.99358,147.9126 96.900241,306.07409 l 26.542039,86.53434 19.27026,82.53485 18.54307,18.54307 3.2723,20.72461 16.72513,27.26922 45.81229,6.54461 6.54461,10.5441 11.99846,31.99589 3.27231,15.27076 15.27076,3.27231 11.27128,17.4523 49.81178,13.45282"
   id="path122"
   style="stroke-width:3.6359" />
<path
   class="st4"
   d="m 298.69249,459.14533 c 0,0 23.63333,-1.09077 26.54204,26.54205 0,0 1.09077,-21.0882 20.72461,-25.81487 l -47.26665,-0.72718"
   id="path124"
   style="stroke-width:3.6359" />
<path
   class="st2"
   d="m 459.03551,506.41198 -4.72667,14.54359 -3.2723,18.90666 3.2723,0.72718 c 1.45436,-1.45436 5.81744,-7.99897 6.90821,-15.63435 1.09077,-7.63539 2.18153,-18.54308 2.18153,-18.54308 l -2.18153,-2.18153 -2.18154,2.18153"
   id="path126"
   style="stroke-width:3.6359" />
<path
   class="st3"
   d="m 459.03551,506.41198 -0.72718,-0.36359 -4.72667,14.54359 -3.2723,18.90666 v 0.36359 l 3.63589,1.09077 h 0.36359 l 0.36359,-0.36359 c 1.45436,-1.81795 5.81744,-7.99897 6.90821,-15.99794 1.09076,-7.63539 2.18153,-18.54308 2.18153,-18.54308 v -0.36358 l -2.54512,-2.54513 -0.36359,-0.36359 -2.18154,2.54513 v 0 0 l 0.36359,1.09076 0.36359,0.36359 1.45436,-1.81794 1.81794,1.81794 0.36359,-0.36359 h -0.36359 c 0,0 -0.72717,10.90769 -1.81794,18.54308 -1.09077,7.27179 -5.45385,13.8164 -6.90821,15.27076 l 0.36359,0.36359 v -0.36359 l -2.54512,-0.72718 3.2723,-18.17948 4.72667,-14.18 -0.72718,-0.72718 0.36359,0.36359 -0.36359,-0.36359"
   id="path128"
   style="stroke-width:3.6359" />
<polyline
   class="st2"
   points="150.1,369.5 148.9,370.2 148.7,371.1 148,376.7 148.3,379 149.9,373.5 150.1,369.5 "
   id="polyline130"
   transform="matrix(3.6358964,0,0,3.6358964,-71.80535,-845.05069)" />
<polyline
   class="st3"
   points="150.1,369.5 150,369.4 148.8,370.1 148.8,370.1 148.6,371.1 147.8,376.7 148.1,379.1 148.4,379.1   150.1,373.5 150.3,369.5 150.3,369.2 150,369.4 150.1,369.5 149.9,369.5 149.8,373.5 148.4,378.3 148.1,376.7 148.9,371.1   149,370.3 150.2,369.7 150.1,369.5 149.9,369.5 150.1,369.5 "
   id="polyline132"
   transform="matrix(3.6358964,0,0,3.6358964,-71.80535,-845.05069)" />
<path
   class="st4"
   d="m 311.05454,517.68326 c 0,0 17.08871,14.90718 7.27179,47.99384 0,0 -2.54513,9.81692 -8.72615,-1.09077 l -4.72667,-10.18051 v -9.81692 l 3.6359,-22.90615 2.54513,-3.99949"
   id="path134"
   style="stroke-width:3.6359" />
<path
   class="st4"
   d="m 336.14222,519.8648 c 0,0 -9.08974,7.63538 -10.18051,20.72461 -1.09077,13.08923 3.6359,25.81486 3.6359,25.81486 0,0 0.72718,3.6359 7.63538,-1.09076 l 5.09026,-3.6359 c 0,0 3.63589,-0.72718 0.36359,-6.54461 -3.27231,-6.18103 -7.63539,-16.72513 -5.81744,-25.08769 l 0.36359,-3.27231 -1.09077,-6.9082"
   id="path136"
   style="stroke-width:3.6359" />
<path
   class="st4"
   d="M 563.02214,245.71821 C 563.02214,115.55312 457.21756,9.7485351 327.05248,9.7485351 196.88739,9.7485351 91.082807,115.55312 91.082807,245.71821 l 0.36359,15.27076 c 0,1.81795 -1.090769,24.7241 2.545127,48.72101 0,0 8.726156,61.44666 14.543586,78.89896 10.5441,31.99589 9.08974,42.1764 9.08974,42.1764 0,0 -1.81795,16.36153 -1.45436,23.63333 2.18154,33.45024 42.1764,45.08511 42.1764,45.08511 -6.54461,43.63076 28.35999,48.72101 32.72307,50.17537 l 37.08614,3.6359 7.99897,25.08768 4.72667,13.08923 1.45436,16.36153 9.45333,7.63539 13.8164,2.54512 5.09026,18.54307 55.9928,6.54462 55.99279,-11.27128 2.90872,-7.27179 c 0,0 7.63538,-7.63539 13.81641,-14.54359 6.18102,-6.54461 6.54461,-10.90769 6.54461,-10.90769 v -11.63487 l 2.90872,-10.18051 7.27179,-14.54358 1.45436,-5.45385 h 22.54256 c 4.72666,-0.36359 25.08768,-0.72718 32.72306,-17.4523 6.90821,-15.63435 9.08975,-41.81281 10.18051,-50.17537 29.45076,-5.45384 35.63179,-25.81486 35.99538,-40.35845 0.72718,-6.9082 0.36359,-13.8164 -0.36359,-19.99743 l -0.36359,-10.90769 c 0,-21.81538 18.90666,-64.71895 19.27025,-65.44613 17.08871,-34.17744 25.45127,-70.17281 25.45127,-107.25895 m -31.63229,103.25946 v 0 c -0.72718,1.81795 -15.99795,36.35897 -19.27025,60.35588 0,0 -3.27231,14.90718 -2.54513,21.45179 0.72718,6.54461 0.72718,22.54256 -1.81795,30.54153 -2.54513,7.99897 -13.45282,12.72564 -13.45282,12.72564 l -6.9082,1.09077 6.18102,-5.81744 c 10.18051,-7.63538 10.90769,-12.72564 12.36205,-17.81589 1.45436,-4.72667 0,-18.17948 -1.09077,-25.45128 -1.45436,-7.27179 -0.72718,-17.4523 -0.72718,-17.4523 -4.72666,5.81744 -3.63589,21.81538 -2.54512,31.6323 1.09076,9.81692 -2.18154,15.27077 -3.6359,17.81589 l -10.18051,9.08974 h -5.09026 l 7.2718,-6.9082 7.99897,-22.90615 v -18.90666 l 1.09077,-10.5441 c 0,-1.81795 3.27231,-7.99897 6.18102,-14.17999 4.36308,-9.81692 7.99897,-20.72461 7.99897,-20.72461 0,0 -13.08922,23.26973 -17.81589,31.99589 -4.72666,8.72615 -5.81743,31.2687 -5.81743,31.2687 1.81795,20.72461 -18.90666,35.2682 -25.45128,35.2682 -6.54461,0 -33.08665,-14.18 -59.6287,-12.36205 -26.54204,1.81795 -55.99279,19.99743 -55.99279,30.54153 0,10.5441 24.72408,5.81744 24.72408,5.81744 l 95.26049,-9.45334 v 0 l 0.36359,2.54513 c -1.45436,3.6359 -18.17948,3.99949 -24.7241,6.54462 l -5.81743,2.18153 11.63487,7.99898 -2.54513,19.63384 c -0.72718,2.18153 -0.72718,21.08819 -25.45127,19.63384 l -17.45231,-1.09077 -3.2723,-0.36359 -28.36,15.99794 18.90667,0.36359 c 0,0 3.63589,3.99949 2.54512,13.08923 l -2.18153,2.54513 -2.54513,4.36307 -2.18154,2.18154 -3.99949,-5.09026 -2.90871,3.27231 -11.63487,13.81641 -7.63538,1.09077 -5.81744,2.90871 -10.90768,1.81795 -8.36256,-3.63589 -7.27179,6.54461 -5.81743,-2.90872 -5.81744,-4.36307 -6.54461,1.09076 -4.72667,-4.72666 -7.27179,-1.09077 -7.63538,4.72667 -7.2718,-1.45436 -3.2723,-8.72615 -3.6359,-10.90769 -4.72666,-16.36154 -3.6359,-3.2723 -7.27179,-0.36359 c -10.90769,0.36359 -15.99795,-10.5441 -20.72461,-10.5441 -6.90821,0 -11.27128,-3.27231 -13.81641,-4.72667 -2.54513,-1.45436 -10.18051,-9.08974 -7.27179,-19.63384 2.90872,-10.5441 15.63435,-8.72615 15.63435,-8.72615 l 1.81795,-1.45436 -3.6359,-6.54461 6.54462,-3.99949 9.08974,0.72718 33.45025,-1.09077 10.5441,-4.36307 6.54461,2.90871 2.90872,12.36205 v 7.27179 l 4.72666,-4.72666 1.81795,-13.08923 c 2.90872,-9.08974 -1.45436,-7.99897 -10.18051,-14.17999 -3.99949,-2.90872 -12.72564,-8.36256 -22.17897,-12.36205 -10.18051,-4.36308 -21.45179,-7.27179 -24.72409,-7.99897 -6.54462,-1.45436 -33.08666,-1.45436 -37.44974,-1.45436 -4.36307,0 -16.72512,2.54513 -29.81435,-4.72667 -13.08922,-7.27179 -19.63384,-23.99691 -19.99743,-25.81486 -0.36359,-1.81795 1.09077,-12.36205 2.90872,-24.7241 1.81795,-12.36204 -7.27179,-27.63281 -7.27179,-27.63281 l -5.09026,-6.18102 c 4.36308,7.27179 9.45333,29.08717 7.63539,36.72255 -2.54513,10.5441 -5.81744,15.27077 -7.63539,22.17897 -3.99948,13.8164 17.08872,29.08717 17.08872,29.08717 -16.72513,-2.90872 -25.45128,-21.45179 -21.0882,-30.54153 4.36307,-9.08974 6.18102,-17.08871 6.54461,-28.35999 0.36359,-10.90769 -4.36308,-17.08871 -22.90615,-45.08512 -18.54307,-27.63282 -25.81486,-62.90101 -25.81486,-62.90101 1.45436,39.63127 25.45127,69.44563 33.08666,84.71639 7.63538,15.27077 4.36307,39.63127 0.36359,49.81178 -3.99949,10.18051 -0.36359,14.18 2.54512,23.99692 2.90872,9.45333 21.81538,27.63281 21.81538,27.63281 -17.08871,-0.36359 -25.45127,-22.90615 -27.63281,-26.54204 -2.54513,-3.99949 -0.36359,-28.35999 1.09077,-39.26768 1.45436,-10.90769 -5.81744,-27.26923 -5.81744,-27.26923 L 116.17049,347.8869 C 107.44434,331.52536 103.08127,312.25511 100.89973,300.25665 98.3546,278.80486 98.3546,260.98897 98.3546,260.62538 v 0 l -0.36359,-14.90717 c 0,-126.16561 102.53228,-228.697882 228.69788,-228.697882 126.16559,0 229.06146,102.532272 229.06146,228.697882 0.36359,35.99537 -7.99897,70.89998 -24.3605,103.25946 z m -93.44254,147.98098 z"
   id="path138"
   style="stroke-width:3.6359" />
<path
   class="st2"
   d="m 121.62434,376.61048 c 0,0 13.45281,13.81641 12.36204,47.26666 -1.09076,34.17742 -7.99897,47.63024 32.35948,64.35536 0,0 -38.17691,-2.18154 -39.63127,-38.5405 l 3.6359,-21.0882 c 0,0.36359 2.18154,-20.36102 -8.72615,-51.99332"
   id="path140"
   style="stroke-width:3.6359" />
<polyline
   class="st2"
   points="71.3,369 69.8,369.7 68.7,368.8 70.4,367.5 71.3,369 "
   id="polyline142"
   transform="matrix(3.6358964,0,0,3.6358964,-71.80535,-845.05069)" />
<polyline
   class="st2"
   points="75.2,370.2 73.9,370.9 73,369.9 74.4,368.6 75.2,370.2 "
   id="polyline144"
   transform="matrix(3.6358964,0,0,3.6358964,-71.80535,-845.05069)" />
<polyline
   class="st2"
   points="81.6,371.2 80.6,371.8 80,371 81,369.8 81.6,371.2 "
   id="polyline146"
   transform="matrix(3.6358964,0,0,3.6358964,-71.80535,-845.05069)" />
<polyline
   class="st2"
   points="78.3,370.7 77.4,371.4 76.5,370.5 78,369.1 78.3,370.7 "
   id="polyline148"
   transform="matrix(3.6358964,0,0,3.6358964,-71.80535,-845.05069)" />
<path
   class="st2"
   d="m 173.25406,516.95608 c 0,0 3.27231,18.17949 12.36205,21.45179 9.08974,3.27231 -0.72718,-6.54461 -2.18154,-9.45333 l -2.90871,-15.27076 -5.09026,-1.81795 -2.18154,5.09025"
   id="path150"
   style="stroke-width:3.6359" />
<path
   class="st2"
   d="m 192.16073,515.13814 c 0,0 -3.27231,10.90768 5.81743,20.36102 l 3.27231,2.54512 2.90871,0.36359 -5.09025,-7.99897 c -0.36359,-1.81795 -3.99949,-5.81743 -3.6359,-13.45282 l -1.45436,-3.2723 -1.81794,1.45436"
   id="path152"
   style="stroke-width:3.6359" />
<polyline
   class="st2"
   points="76,374.1 76.6,377.5 78,379.6 78.4,379.2 77.9,378.3 77.5,375.8 77.1,373.8 76,374.1 "
   id="polyline154"
   transform="matrix(3.6358964,0,0,3.6358964,-71.80535,-845.05069)" />
<polyline
   class="st2"
   points="130.5,386 130.2,388.6 130.1,390 130.9,389.1 132.6,385.7 131.9,384.6 130.6,385.6 130.5,386 "
   id="polyline156"
   transform="matrix(3.6358964,0,0,3.6358964,-71.80535,-845.05069)" />
<path
   class="st2"
   d="m 245.24481,555.86018 2.18154,4.72666 v 15.27077 c 0,0 0,8.72615 -3.27231,2.54512 l -3.2723,-12.36205 v -7.27179 l 0.72718,-3.63589 3.63589,0.72718"
   id="path158"
   style="stroke-width:3.6359" />
<path
   class="st2"
   d="m 257.24327,559.49607 4.72667,1.45436 2.90871,5.81743 c 0,0 2.90872,10.18051 2.90872,15.99795 0,5.81743 -2.54513,3.2723 -2.54513,3.2723 l -1.81795,-5.45384 -1.81794,-5.09025 v 8.36256 l 0.36359,8.36256 -0.36359,10.90769 -6.54462,2.54513 c -2.54512,-1.09077 -2.18153,-5.81744 -2.54512,-13.81641 -0.36359,-7.99897 2.54512,-12.72564 2.54512,-12.72564 l 4.36308,-6.54461 -0.72718,-5.09026 -1.45436,-7.99897 v 0"
   id="path160"
   style="stroke-width:3.6359" />
<path
   class="st2"
   d="m 273.6048,591.12837 c 0,0 -2.54512,7.27179 -1.45435,13.45282 0.72718,6.54461 0.72718,10.5441 1.81794,13.45281 l 4.72667,7.99897 3.6359,-9.08974 -1.09077,-18.17948 -3.6359,-9.08974 -3.99949,1.45436"
   id="path162"
   style="stroke-width:3.6359" />
<path
   class="st2"
   d="m 292.51147,602.03606 c 0,0 -4.36308,5.09025 -3.99949,14.17999 0.36359,8.72616 1.09077,11.63487 2.90872,12.72564 1.45436,1.09077 7.63538,5.45385 9.81692,-7.27179 2.54512,-12.72564 0.36359,-18.90666 0.36359,-18.90666 l -4.72667,-4.36308 -4.36307,3.6359"
   id="path164"
   style="stroke-width:3.6359" />
<path
   class="st2"
   d="m 309.60018,607.85349 -0.72718,6.90821 -0.36359,11.63486 4.72666,4.72667 c 1.81795,1.45436 7.63539,3.6359 8.36257,-5.81743 0.72718,-9.81692 -0.72718,-17.8159 -0.72718,-17.8159 l -7.2718,-3.63589 -3.99948,3.99948"
   id="path166"
   style="stroke-width:3.6359" />
<path
   class="st2"
   d="m 332.50633,605.30837 -2.90872,11.63486 1.45436,10.90769 10.5441,2.90872 c 3.2723,-1.81795 4.36307,-3.27231 5.09025,-13.08923 l -5.81743,-14.90717 -7.63539,1.45436 -0.72717,1.09077"
   id="path168"
   style="stroke-width:3.6359" />
<path
   class="st2"
   d="m 353.59451,606.39913 -0.72718,10.90769 2.90872,11.63487 c 2.90872,1.45436 9.81692,4.36308 8.72615,-10.5441 -1.09077,-13.08922 -2.90871,-14.54358 -2.90871,-14.54358 l -4.36308,-2.18154 -3.6359,4.72666"
   id="path170"
   style="stroke-width:3.6359" />
<path
   class="st2"
   d="m 377.59143,590.76478 c 0,0 -4.72667,6.54461 -5.09026,13.08923 -0.36358,6.9082 -1.09076,7.63538 -0.36358,13.08922 0.72717,5.45385 3.63589,13.08923 7.27179,2.54513 3.63589,-10.90769 1.81795,-23.99691 1.81795,-23.99691 l -2.90872,-6.18103 -0.72718,1.45436"
   id="path172"
   style="stroke-width:3.6359" />
<path
   class="st2"
   d="m 392.86219,579.85709 -3.2723,9.08974 -1.81795,7.27179 0.72718,9.81692 4.72666,-2.18153 3.27231,-4.72667 c 0,0 1.09077,-4.36307 0,-12.36205 -1.09077,-7.99897 -1.09077,-7.99897 -1.09077,-7.99897 l -2.54513,1.09077"
   id="path174"
   style="stroke-width:3.6359" />
<path
   class="st4"
   d="m 634.28571,327.16229 c 0,82.53485 -31.99588,159.97944 -90.53382,218.51738 -58.17434,58.53793 -135.98252,90.53381 -218.51736,90.53381 -82.53484,0 -160.34303,-31.99588 -218.51737,-90.53381 C 48.54282,487.14173 16.183341,409.69714 16.183341,327.16229 c 0,-82.53485 31.995889,-159.97944 90.533819,-218.51738 58.17434,-58.537927 135.98253,-90.533813 218.51737,-90.533813 82.53484,0 160.34302,31.995886 218.51736,90.533813 58.17435,58.53794 90.53382,135.98253 90.53382,218.51738 M 325.23453,10.112125 c -84.71638,0 -164.34251,33.086655 -224.3348,93.078945 -59.992293,59.99229 -93.0789505,139.61842 -93.0789505,224.33481 0,84.71639 33.0866575,164.70611 93.0789505,224.33481 59.99229,59.99229 139.61842,93.07895 224.3348,93.07895 84.71638,0 164.34251,-33.08666 224.3348,-93.07895 59.99229,-59.99229 93.07894,-139.61842 93.07894,-224.33481 0,-84.71639 -33.08665,-164.34252 -93.07894,-224.33481 C 489.57704,42.835191 409.95091,10.112125 325.23453,10.112125 Z"
   id="path176"
   style="stroke-width:3.6359" />
<path
   class="st4"
   d="m 634.28571,327.16229 h -3.2723 c 0,81.80767 -31.6323,158.52509 -89.44305,215.97225 -57.81076,57.81075 -134.52817,89.44305 -215.97224,89.44305 -81.44408,0 -158.52508,-31.6323 -215.97224,-89.44305 C 51.815126,485.32379 20.182827,408.60637 20.182827,327.16229 c 0,-81.44408 31.632299,-158.1615 89.443053,-215.97225 57.81075,-57.81075 134.52816,-89.443048 215.97224,-89.443048 81.80766,0 158.52507,31.632298 215.97224,89.443048 57.81075,57.81075 89.44305,134.52817 89.44305,215.97225 h 6.9082 c 0,-83.26203 -32.35948,-161.79739 -91.62459,-220.69891 C 487.3955,47.561856 408.86014,14.83879 325.23453,14.83879 c -83.62561,0 -161.79739,32.359476 -221.0625,91.62459 -58.901517,58.90152 -91.624585,137.43688 -91.624585,220.69891 0,83.62562 32.359478,161.79739 91.624585,221.0625 58.90153,58.90152 137.43689,91.62459 221.0625,91.62459 83.26202,0 161.79738,-32.35948 221.06249,-91.62459 58.90152,-58.90152 91.62459,-137.43688 91.62459,-221.0625 h -3.6359 M 325.23453,10.112125 V 6.4762284 c -85.80715,0 -166.16046,33.4502456 -226.87993,93.8061216 -60.71947,60.71947 -93.8061272,141.07278 -93.8061272,226.87994 0,85.80716 33.4502472,166.52406 93.8061272,226.87994 60.71947,60.71947 141.07278,93.80612 226.87993,93.80612 85.80715,0 166.16046,-33.45024 226.87993,-93.80612 60.71946,-60.71947 93.80612,-141.07278 93.80612,-226.87994 0,-85.44357 -33.45025,-166.16047 -93.80612,-226.87994 C 491.39499,39.562884 411.04168,6.4762284 325.23453,6.4762284 v 6.9082026 c 83.9892,0 162.52456,32.723066 222.15326,91.988179 59.26511,59.26511 91.98818,138.16406 91.98818,222.15327 0,83.98921 -32.72307,162.88816 -91.98818,222.15327 -59.26511,59.26511 -138.16406,91.98818 -222.15326,91.98818 -83.9892,0 -162.52456,-32.72307 -222.15326,-91.98818 C 43.816154,490.41404 11.093086,411.51509 11.093086,327.52588 c 0,-83.98921 32.723068,-162.52457 91.988184,-222.15327 59.26511,-59.265113 138.16406,-91.988179 222.15326,-91.988179 z"
   id="path178"
   style="stroke-width:3.6359" />















</svg>
