<?xml version="1.0" encoding="UTF-8" standalone="no"?>
<!-- Generator: Adobe Illustrator 19.2.1, SVG Export Plug-In . SVG Version: 6.00 Build 0)  -->

<svg
   version="1.1"
   id="layer"
   x="0px"
   y="0px"
   viewBox="0 0 64 64"
   xml:space="preserve"
   sodipodi:docname="svgtest.svg"
   inkscape:version="1.1 (c68e22c387, 2021-05-23)"
   width="64"
   height="64"
   xmlns:inkscape="http://www.inkscape.org/namespaces/inkscape"
   xmlns:sodipodi="http://sodipodi.sourceforge.net/DTD/sodipodi-0.dtd"
   xmlns="http://www.w3.org/2000/svg"
   xmlns:svg="http://www.w3.org/2000/svg"><defs
   id="defs213" /><sodipodi:namedview
   id="namedview211"
   pagecolor="#ffffff"
   bordercolor="#666666"
   borderopacity="1.0"
   inkscape:pageshadow="2"
   inkscape:pageopacity="0.0"
   inkscape:pagecheckerboard="0"
   showgrid="false"
   inkscape:zoom="4.6196321"
   inkscape:cx="10.931606"
   inkscape:cy="51.086319"
   inkscape:window-width="1688"
   inkscape:window-height="965"
   inkscape:window-x="343"
   inkscape:window-y="222"
   inkscape:window-maximized="0"
   inkscape:current-layer="layer"
   width="150px" />
<style
   type="text/css"
   id="style2">
	.st0{fill:#EC1C24;}
	.st1{fill:#0054A5;}
	.st2{fill:#FFFFFF;}
	.st3{fill:#005AA9;}
	.st4{fill:#000510;}
	.st5{fill:#231F20;}
</style>



















































<path
   class="st2"
   d="m 32.006981,0.94674113 c -8.207979,0 -15.922775,3.20569077 -21.735292,9.01820807 C 4.4591719,15.777467 1.2534802,23.492263 1.2534802,31.700242 c 0,8.207979 3.2056917,15.958002 9.0182088,21.735293 5.812517,5.812519 13.527313,9.018207 21.735292,9.018207 8.20798,0 15.922777,-3.205688 21.735292,-9.018207 5.812518,-5.812519 9.018207,-13.527314 9.018207,-21.735293 0,-8.207979 -3.205689,-15.922775 -9.018207,-21.7352928 C 47.929758,4.117205 40.214961,0.94674113 32.006981,0.94674113"
   id="path106"
   style="stroke-width:0.352274" />
<path
   class="st0"
   d="m 32.006981,61.995784 c 16.768231,0 30.330768,-13.562537 30.330768,-30.330769 0,-16.733005 -13.597765,-30.3307728 -30.330768,-30.3307728 8.912527,0.1056821 16.803458,4.6852405 20.572785,12.8579938 0,0 5.812523,7.996613 -1.303408,22.651205 l -1.092051,7.75002 -1.867054,1.726143 -2.113638,1.409095 -0.634098,3.417055 -4.720464,2.325009 -1.162505,2.571596 -0.246591,1.690916 -1.726141,2.184099 -0.775003,1.021596 -4.931832,1.056814"
   id="path108"
   style="stroke-width:0.352274" />
<path
   class="st3"
   d="m 41.941102,5.8433468 c 6.376151,3.4522825 10.709119,10.2159402 10.709119,18.0011902 0,11.30799 -9.159114,20.467103 -20.467104,20.467103 -3.945465,0 -7.609113,-1.092042 -10.709121,-3.02955"
   id="path110"
   style="stroke-width:0.352274" />
<path
   class="st0"
   d="m 21.438768,41.28209 c -5.847746,-3.593192 -9.757984,-10.075031 -9.757984,-17.437553 0,-11.307989 9.159119,-20.4671075 20.467106,-20.4671075 3.522738,0 6.869338,0.9159114 9.757985,2.4659173"
   id="path112"
   style="stroke-width:0.352274" />
<polyline
   class="st2"
   points="138.2,249.1 120.4,257.7 127.1,259.2 102.9,270.7 118.6,273.3 88.8,291.1 107.9,289.5 80.5,310.2   97.2,309.3 79.4,325.3 92.5,324.5 80,349.5 102.1,342.2 95.6,339.4 113.4,331.5 105.8,328.9 132.7,315.1 112.8,315.1 140,297.1   117.3,298.1 143.6,280.7 124.8,278.5 142.3,262.9 130.9,265.2 138.2,249.1 "
   id="polyline114"
   transform="matrix(0.35227379,0,0,0.35227379,-6.4613155,-81.908049)" />
<path
   class="st4"
   d="m 42.046781,5.5262998 -6.235244,3.0295546 -0.880684,0.422729 0.951139,0.211364 2.360234,0.5636379 -0.07046,-0.6693199 -8.525023,4.0511486 -0.563639,0.352273 0.634092,0.281819 5.495471,0.915912 -0.105682,-0.634092 -10.462531,6.235246 -0.845457,0.598866 1.021594,0.07046 6.728429,-0.563639 -0.246592,-0.634092 -9.652301,7.292066 -0.739774,0.563639 0.951138,0.03523 5.882973,-0.28182 -0.246592,-0.598865 -6.235247,5.601153 -0.493182,0.598865 h 0.775001 l 4.614787,-0.281818 -0.352273,-0.493184 -4.403424,8.806844 0.14091,0.422731 0.28182,0.07046 7.820479,-2.571599 0.845455,-0.28182 -0.845455,-0.352272 -2.289781,-1.021595 v 0.634093 l 6.235247,-2.747736 0.810229,-0.352274 -0.845457,-0.281819 -2.642054,-0.915912 0.03523,0.634093 9.476163,-4.861379 0.81023,-0.493182 -0.986363,-0.176138 h -6.975023 l 0.176138,0.634093 9.546617,-6.340929 0.845458,-0.634093 H 42.78656 l -7.996617,0.352274 0.211365,0.634093 9.30003,-6.164791 0.563633,-0.422729 -0.704544,-0.211364 -6.622747,-0.739775 0.176136,0.598865 6.164791,-5.530699 0.81023,-0.66932 -1.127275,0.07046 -4.051151,0.845457 0.387502,0.493183 2.571599,-5.7068352 -0.105683,-0.211364 -0.317048,-0.176137 m -2.325006,6.3409282 4.051149,-0.845457 -0.317044,-0.598865 -6.164792,5.495471 -0.598866,0.528411 0.775002,0.105682 6.622748,0.739774 -0.14091,-0.634092 -9.264801,6.164791 -1.05682,0.704547 9.264797,-0.422728 -0.211361,-0.634092 -10.532987,6.975021 h 8.137526 l -0.176137,-0.66932 -9.476166,4.861377 -0.739774,0.387502 0.775002,0.281819 2.642053,0.915912 -0.03523,-0.634093 -6.235245,2.747736 -0.704548,0.317046 0.704548,0.317047 2.28978,1.021591 0.03523,-0.63409 -7.820478,2.571597 0.422729,0.493185 4.403421,-8.806846 0.246592,-0.528411 -0.598866,0.03523 -4.614786,0.28182 0.246592,0.598864 6.235246,-5.601152 0.739775,-0.66932 -0.986367,0.03523 -5.882972,0.281819 0.211365,0.634093 9.652301,-7.292068 0.951139,-0.704547 -1.197731,0.105683 -6.72843,0.563637 0.211365,0.634094 10.462531,-6.235248 0.810229,-0.493181 -0.951139,-0.176137 -5.530697,-0.915912 0.105682,0.66932 8.525024,-4.0511496 0.915911,-0.422729 -3.3466,-0.7750018 0.07046,0.6340918 6.235244,-3.0295535 -0.457954,-0.457956 -2.571599,5.7068351 -0.281819,0.634093 z"
   id="path116"
   style="stroke-width:0.352274" />
<path
   class="st5"
   d="M 41.764965,6.1251647 C 48.035436,9.5422213 52.29795,16.200196 52.29795,23.809309 52.26272,34.941162 43.279742,43.924145 32.183117,43.924145 c -3.87501,0 -7.468203,-1.092051 -10.532984,-2.959103 l -0.352275,0.598865 c 3.170464,1.972735 6.904566,3.064782 10.885259,3.064782 11.519356,0 20.81938,-9.300025 20.81938,-20.81938 0,-7.890932 -4.403423,-14.7954986 -10.885261,-18.3182372 l -0.352271,0.6340929"
   id="path118"
   style="stroke-width:0.352274" />
<path
   class="st5"
   d="M 21.650133,41.00027 C 15.908069,37.442306 12.068286,31.101377 12.068286,23.844537 12.103514,12.712685 21.086495,3.729704 32.183117,3.694476 c 3.487511,0 6.728429,0.8806849 9.617076,2.4306887 L 42.117236,5.5262998 C 39.158138,3.941068 35.77631,3.0251562 32.183117,3.0251562 c -11.484124,0 -20.819379,9.3000278 -20.819379,20.8193808 0,7.503431 3.980693,14.055725 9.898893,17.754597 l 0.387502,-0.598864"
   id="path120"
   style="stroke-width:0.352274" />
<path
   class="st3"
   d="M 32.006981,61.995784 C 15.238749,61.995784 1.6762087,48.433247 1.6762087,31.665015 1.6762087,14.93201 15.273977,1.3342422 32.006981,1.3342422 16.048979,2.0387896 8.0523645,14.297918 9.8841872,29.621828 l 2.5715988,8.384117 1.867052,7.996616 1.796596,1.796593 0.317046,2.00796 1.62046,2.642053 4.438648,0.634092 0.634093,1.021596 1.162504,3.100011 0.317047,1.479546 1.479549,0.317048 1.09205,1.690916 4.82615,1.303408"
   id="path122"
   style="stroke-width:0.352274" />
<path
   class="st4"
   d="m 29.435383,44.452551 c 0,0 2.28978,-0.105683 2.571598,2.5716 0,0 0.105682,-2.043187 2.00796,-2.501145 l -4.579558,-0.07046"
   id="path124"
   style="stroke-width:0.352274" />
<path
   class="st2"
   d="m 44.970652,49.032111 -0.457953,1.409096 -0.317044,1.831822 0.317044,0.07046 c 0.14091,-0.14091 0.563637,-0.775003 0.66932,-1.514774 0.105683,-0.739775 0.211366,-1.796599 0.211366,-1.796599 l -0.211366,-0.211365 -0.211367,0.211365"
   id="path126"
   style="stroke-width:0.352274" />
<path
   class="st3"
   d="m 44.970652,49.032111 -0.07046,-0.03523 -0.457949,1.409096 -0.317048,1.831822 v 0.03523 l 0.352276,0.105683 h 0.03523 l 0.03523,-0.03523 c 0.140906,-0.176138 0.563637,-0.775003 0.66932,-1.550006 0.105682,-0.739771 0.211365,-1.796595 0.211365,-1.796595 v -0.03523 l -0.246593,-0.246594 -0.03523,-0.03523 -0.211365,0.246589 v 0 0 l 0.03523,0.105683 0.03523,0.03523 0.140911,-0.176138 0.176138,0.176138 0.03523,-0.03523 h -0.03523 c 0,0 -0.07046,1.056819 -0.176138,1.796594 -0.105683,0.704547 -0.528414,1.33864 -0.66932,1.47955 l 0.03523,0.03523 v -0.03523 l -0.246594,-0.07046 0.317049,-1.761371 0.457954,-1.373863 -0.07046,-0.07046 0.03523,0.03523 -0.03523,-0.03523"
   id="path128"
   style="stroke-width:0.352274" />
<polyline
   class="st2"
   points="150.1,369.5 148.9,370.2 148.7,371.1 148,376.7 148.3,379 149.9,373.5 150.1,369.5 "
   id="polyline130"
   transform="matrix(0.35227379,0,0,0.35227379,-6.4613155,-81.908049)" />
<polyline
   class="st3"
   points="150.1,369.5 150,369.4 148.8,370.1 148.8,370.1 148.6,371.1 147.8,376.7 148.1,379.1 148.4,379.1   150.1,373.5 150.3,369.5 150.3,369.2 150,369.4 150.1,369.5 149.9,369.5 149.8,373.5 148.4,378.3 148.1,376.7 148.9,371.1   149,370.3 150.2,369.7 150.1,369.5 149.9,369.5 150.1,369.5 "
   id="polyline132"
   transform="matrix(0.35227379,0,0,0.35227379,-6.4613155,-81.908049)" />
<path
   class="st4"
   d="m 30.633113,50.124163 c 0,0 1.655687,1.444318 0.704548,4.650011 0,0 -0.246592,0.951141 -0.845458,-0.105682 l -0.457956,-0.986363 v -0.951141 l 0.352275,-2.219326 0.246591,-0.387499"
   id="path134"
   style="stroke-width:0.352274" />
<path
   class="st4"
   d="m 33.063802,50.335528 c 0,0 -0.880685,0.739771 -0.986367,2.007956 -0.105682,1.268189 0.352275,2.501141 0.352275,2.501141 0,0 0.07046,0.352276 0.739775,-0.105678 l 0.493183,-0.352271 c 0,0 0.352273,-0.07046 0.03523,-0.634092 -0.317047,-0.598869 -0.739776,-1.620466 -0.563639,-2.430696 l 0.03523,-0.31704 -0.105682,-0.66932"
   id="path136"
   style="stroke-width:0.352274" />
<path
   class="st4"
   d="m 55.045684,23.774082 c 0,-12.611401 -10.25117,-22.86256837 -22.862567,-22.86256837 -12.6114,0 -22.8625667,10.25116737 -22.8625667,22.86256837 l 0.035228,1.47955 c 0,0.176137 -0.1056819,2.395462 0.246592,4.720468 0,0 0.8454567,5.953429 1.4090947,7.644343 1.021594,3.100007 0.880685,4.086374 0.880685,4.086374 0,0 -0.176138,1.585231 -0.14091,2.289783 0.211364,3.240917 4.086375,4.368191 4.086375,4.368191 -0.634092,4.227286 2.747736,4.720468 3.170465,4.861379 l 3.593192,0.352276 0.775002,2.430686 0.457956,1.268189 0.14091,1.585229 0.915912,0.739775 1.33864,0.246593 0.493184,1.796595 5.425015,0.634091 5.425016,-1.092046 0.281819,-0.704547 c 0,0 0.739774,-0.739775 1.33864,-1.409095 0.598865,-0.634097 0.634093,-1.05682 0.634093,-1.05682 v -1.127279 l 0.281821,-0.986368 0.704546,-1.40909 0.14091,-0.528414 h 2.184096 c 0.457959,-0.03523 2.430686,-0.07046 3.170462,-1.690916 0.669325,-1.514774 0.880691,-4.051148 0.986368,-4.861374 2.853418,-0.528409 3.452287,-2.501146 3.487515,-3.910241 0.07046,-0.66932 0.03523,-1.338639 -0.03523,-1.937507 l -0.03523,-1.056819 c 0,-2.113644 1.831827,-6.270474 1.86705,-6.340928 1.655688,-3.311376 2.465919,-6.798885 2.465919,-10.392078 m -3.064784,10.004576 v 0 c -0.07046,0.176137 -1.550006,3.522739 -1.86705,5.847746 0,0 -0.317044,1.444321 -0.246589,2.078413 0.07046,0.634096 0.07046,2.184101 -0.176138,2.959099 -0.246593,0.775003 -1.303416,1.232962 -1.303416,1.232962 l -0.66932,0.105683 0.598864,-0.563642 c 0.986369,-0.739775 1.056824,-1.232957 1.197734,-1.726139 0.140911,-0.457955 0,-1.76137 -0.105682,-2.465917 -0.140911,-0.704547 -0.07046,-1.690914 -0.07046,-1.690914 -0.457954,0.563637 -0.352271,2.11364 -0.246588,3.06478 0.105678,0.95114 -0.211366,1.47955 -0.352276,1.726139 l -0.986369,0.880684 h -0.493195 l 0.704552,-0.669319 0.775003,-2.21932 v -1.831825 l 0.105682,-1.021594 c 0,-0.176138 0.317044,-0.775003 0.598865,-1.373867 0.422731,-0.95114 0.775003,-2.007961 0.775003,-2.007961 0,0 -1.268185,2.254551 -1.726144,3.100007 -0.457954,0.845458 -0.563637,3.029557 -0.563637,3.029557 0.176138,2.007959 -1.831822,3.417055 -2.465919,3.417055 -0.634092,0 -3.20569,-1.373868 -5.777288,-1.197734 -2.571599,0.176138 -5.425014,1.937508 -5.425014,2.959104 0,1.021592 2.395459,0.563633 2.395459,0.563633 l 9.229574,-0.915909 v 0 l 0.03523,0.246593 c -0.14091,0.352272 -1.761371,0.387499 -2.395458,0.634088 l -0.563643,0.211366 1.127275,0.775003 -0.246588,1.902281 c -0.07046,0.211362 -0.07046,2.043188 -2.465918,1.902278 l -1.690914,-0.105683 -0.317045,-0.03523 -2.747737,1.55 1.831825,0.03523 c 0,0 0.352273,0.3875 0.246591,1.268185 l -0.211364,0.246593 -0.246592,0.422727 -0.211364,0.211366 -0.387502,-0.493187 -0.281818,0.317049 -1.127277,1.338644 -0.739773,0.105679 -0.563639,0.28182 -1.056821,0.176134 -0.81023,-0.352271 -0.704547,0.634092 -0.563638,-0.281821 -0.563639,-0.422727 -0.634092,0.105683 -0.457957,-0.457954 -0.704547,-0.105683 -0.739775,0.457954 -0.704548,-0.140906 -0.317045,-0.845458 -0.352274,-1.056823 -0.457955,-1.585234 -0.352274,-0.317044 -0.704548,-0.03523 c -1.056821,0.03523 -1.550005,-1.021596 -2.007961,-1.021596 -0.669321,0 -1.092049,-0.317048 -1.338641,-0.457959 -0.246592,-0.140905 -0.986366,-0.880685 -0.704547,-1.902272 0.281819,-1.021596 1.514777,-0.845458 1.514777,-0.845458 l 0.176137,-0.14091 -0.352274,-0.634092 0.634094,-0.387504 0.880684,0.07046 3.24092,-0.105683 1.021592,-0.422727 0.634093,0.281817 0.281819,1.197734 v 0.704548 l 0.457956,-0.457955 0.176137,-1.268189 c 0.281819,-0.880686 -0.14091,-0.775003 -0.986367,-1.373868 -0.387501,-0.281816 -1.232958,-0.810226 -2.148869,-1.197729 -0.986367,-0.422732 -2.078416,-0.704548 -2.395462,-0.775003 -0.634093,-0.140911 -3.205692,-0.140911 -3.628421,-0.140911 -0.422728,0 -1.620459,0.246593 -2.888644,-0.457959 -1.268185,-0.704547 -1.902279,-2.325002 -1.937506,-2.50114 -0.03523,-0.176137 0.105682,-1.197728 0.281819,-2.395461 0.176137,-1.197731 -0.704547,-2.677281 -0.704547,-2.677281 l -0.493184,-0.598864 c 0.422729,0.704546 0.915912,2.818191 0.739775,3.557965 -0.246591,1.021591 -0.563638,1.47955 -0.739775,2.148869 -0.387501,1.338643 1.655687,2.818188 1.655687,2.818188 -1.62046,-0.28182 -2.465917,-2.078414 -2.043188,-2.959099 0.422728,-0.880684 0.598866,-1.655686 0.634093,-2.747732 0.03523,-1.056823 -0.422729,-1.655688 -2.219326,-4.368197 -1.796586,-2.677263 -2.501133,-6.094319 -2.501133,-6.094319 0.140909,3.839785 2.465915,6.728431 3.205692,8.20798 0.739773,1.47955 0.422728,3.839786 0.03523,4.826153 -0.387502,0.986363 -0.03523,1.373867 0.246591,2.325002 0.281819,0.915914 2.113642,2.677285 2.113642,2.677285 -1.655686,-0.03523 -2.465915,-2.21933 -2.67728,-2.571602 -0.246592,-0.387503 -0.03523,-2.747733 0.105682,-3.804555 0.14091,-1.056822 -0.563639,-2.642054 -0.563639,-2.642054 L 11.751232,33.672983 C 10.905775,32.08775 10.483047,30.2207 10.271682,29.058196 10.02509,26.97978 10.02509,25.253639 10.02509,25.218412 v 0 L 9.989866,23.774087 c 0,-12.2239 9.934121,-22.1580206 22.15802,-22.1580206 12.223903,0 22.193247,9.9341206 22.193247,22.1580206 0.03523,3.487511 -0.775003,6.86934 -2.360237,10.004576 z m -9.053415,14.33754 z"
   id="path138"
   style="stroke-width:0.352274" />
<path
   class="st2"
   d="m 12.27965,36.455939 c 0,0 1.303412,1.338641 1.197729,4.579559 -0.10568,3.31137 -0.775001,4.614787 3.135238,6.235246 0,0 -3.698874,-0.211365 -3.839784,-3.734102 l 0.352274,-2.043186 c 0,0.03522 0.211363,-1.972735 -0.845457,-5.037517"
   id="path140"
   style="stroke-width:0.352274" />
<polyline
   class="st2"
   points="71.3,369 69.8,369.7 68.7,368.8 70.4,367.5 71.3,369 "
   id="polyline142"
   transform="matrix(0.35227379,0,0,0.35227379,-6.4613155,-81.908049)" />
<polyline
   class="st2"
   points="75.2,370.2 73.9,370.9 73,369.9 74.4,368.6 75.2,370.2 "
   id="polyline144"
   transform="matrix(0.35227379,0,0,0.35227379,-6.4613155,-81.908049)" />
<polyline
   class="st2"
   points="81.6,371.2 80.6,371.8 80,371 81,369.8 81.6,371.2 "
   id="polyline146"
   transform="matrix(0.35227379,0,0,0.35227379,-6.4613155,-81.908049)" />
<polyline
   class="st2"
   points="78.3,370.7 77.4,371.4 76.5,370.5 78,369.1 78.3,370.7 "
   id="polyline148"
   transform="matrix(0.35227379,0,0,0.35227379,-6.4613155,-81.908049)" />
<path
   class="st2"
   d="m 17.281937,50.053707 c 0,0 0.317046,1.761367 1.197731,2.078411 0.880684,0.317049 -0.07046,-0.634092 -0.211365,-0.915908 l -0.281818,-1.479551 -0.493183,-0.176138 -0.211365,0.493186"
   id="path150"
   style="stroke-width:0.352274" />
<path
   class="st2"
   d="m 19.113762,49.877569 c 0,0 -0.317047,1.056824 0.563637,1.972733 l 0.317047,0.246593 0.281819,0.03523 -0.493183,-0.774998 c -0.03523,-0.176134 -0.387502,-0.563638 -0.352275,-1.303413 l -0.14091,-0.317048 -0.176135,0.14091"
   id="path152"
   style="stroke-width:0.352274" />
<polyline
   class="st2"
   points="76,374.1 76.6,377.5 78,379.6 78.4,379.2 77.9,378.3 77.5,375.8 77.1,373.8 76,374.1 "
   id="polyline154"
   transform="matrix(0.35227379,0,0,0.35227379,-6.4613155,-81.908049)" />
<polyline
   class="st2"
   points="130.5,386 130.2,388.6 130.1,390 130.9,389.1 132.6,385.7 131.9,384.6 130.6,385.6 130.5,386 "
   id="polyline156"
   transform="matrix(0.35227379,0,0,0.35227379,-6.4613155,-81.908049)" />
<path
   class="st2"
   d="m 24.256958,53.823039 0.211364,0.457954 v 1.47955 c 0,0 0,0.845458 -0.317047,0.246589 l -0.317046,-1.197734 v -0.704543 l 0.07046,-0.352271 0.352274,0.07046"
   id="path158"
   style="stroke-width:0.352274" />
<path
   class="st2"
   d="m 25.419461,54.175311 0.457957,0.14091 0.281818,0.563632 c 0,0 0.28182,0.986368 0.28182,1.55001 0,0.563637 -0.246592,0.317044 -0.246592,0.317044 l -0.176138,-0.52841 -0.176136,-0.493182 v 0.810231 l 0.03523,0.81023 -0.03523,1.056815 -0.634093,0.246593 c -0.246591,-0.105682 -0.211364,-0.563637 -0.246591,-1.338635 -0.03523,-0.775003 0.246591,-1.232962 0.246591,-1.232962 l 0.422729,-0.634093 -0.07046,-0.493186 -0.14091,-0.774997 v 0"
   id="path160"
   style="stroke-width:0.352274" />
<path
   class="st2"
   d="m 27.004693,57.240093 c 0,0 -0.246591,0.704548 -0.140908,1.303409 0.07046,0.634096 0.07046,1.021596 0.176136,1.303416 l 0.457956,0.775003 0.352274,-0.880685 -0.105682,-1.761367 -0.352274,-0.880686 -0.387502,0.14091"
   id="path162"
   style="stroke-width:0.352274" />
<path
   class="st2"
   d="m 28.836518,58.296913 c 0,0 -0.422729,0.493182 -0.387502,1.373867 0.03523,0.845458 0.105683,1.127279 0.28182,1.232962 0.140909,0.105678 0.739775,0.52841 0.951139,-0.704552 0.24659,-1.232957 0.03523,-1.831822 0.03523,-1.831822 l -0.457955,-0.422727 -0.422728,0.352272"
   id="path164"
   style="stroke-width:0.352274" />
<path
   class="st2"
   d="m 30.492203,58.86055 -0.07046,0.66932 -0.03523,1.127279 0.457955,0.457954 c 0.176138,0.140911 0.739776,0.352276 0.810231,-0.563637 0.07046,-0.951141 -0.07046,-1.726144 -0.07046,-1.726144 L 30.879701,58.473046 30.4922,58.86055"
   id="path166"
   style="stroke-width:0.352274" />
<path
   class="st2"
   d="m 32.711529,58.613957 -0.281819,1.127279 0.140909,1.056823 1.021595,0.281817 c 0.317045,-0.176134 0.422727,-0.317044 0.493183,-1.268185 l -0.563639,-1.444323 -0.739775,0.140906 -0.07046,0.105683"
   id="path168"
   style="stroke-width:0.352274" />
<path
   class="st2"
   d="m 34.754715,58.71964 -0.07046,1.056823 0.281819,1.127279 c 0.281819,0.140906 0.951139,0.422727 0.845457,-1.021596 -0.105682,-1.268189 -0.281818,-1.4091 -0.281818,-1.4091 l -0.422729,-0.211361 -0.352275,0.457955"
   id="path170"
   style="stroke-width:0.352274" />
<path
   class="st2"
   d="m 37.079723,57.204866 c 0,0 -0.457956,0.634092 -0.493184,1.26818 -0.03523,0.669325 -0.105681,0.73978 -0.03523,1.26819 0.07046,0.528409 0.352273,1.268184 0.704546,0.246593 0.352273,-1.056824 0.176137,-2.325009 0.176137,-2.325009 l -0.281819,-0.598865 -0.07046,0.140911"
   id="path172"
   style="stroke-width:0.352274" />
<path
   class="st2"
   d="m 38.559272,56.148042 -0.317046,0.880686 -0.176137,0.704547 0.07046,0.951137 0.457954,-0.211366 0.317047,-0.45795 c 0,0 0.105682,-0.422731 0,-1.197734 -0.105682,-0.775003 -0.105682,-0.775003 -0.105682,-0.775003 l -0.246592,0.105683"
   id="path174"
   style="stroke-width:0.352274" />
<path
   class="st4"
   d="m 61.950255,31.665015 c 0,7.996617 -3.100016,15.500047 -8.77162,21.171655 -5.636381,5.671604 -13.17504,8.771615 -21.171654,8.771615 -7.996614,0 -15.535274,-3.100011 -21.171654,-8.771615 C 5.1989468,47.165062 2.0637099,39.661632 2.0637099,31.665015 c 0,-7.996615 3.1000099,-15.500046 8.7716171,-21.171655 5.63638,-5.6716081 13.17504,-8.7716166 21.171654,-8.7716166 7.996614,0 15.535273,3.1000085 21.171654,8.7716166 5.636381,5.671609 8.77162,13.17504 8.77162,21.171655 M 32.006981,0.94674113 c -8.207979,0 -15.922775,3.20569077 -21.735292,9.01820807 C 4.4591719,15.777467 1.2534802,23.492263 1.2534802,31.700242 c 0,8.207979 3.2056917,15.958002 9.0182088,21.735293 5.812517,5.812519 13.527313,9.018207 21.735292,9.018207 8.20798,0 15.922777,-3.205688 21.735292,-9.018207 5.812518,-5.812519 9.018207,-13.527314 9.018207,-21.735293 0,-8.207979 -3.205689,-15.922775 -9.018207,-21.7352928 C 47.929758,4.117205 40.214961,0.94674113 32.006981,0.94674113 Z"
   id="path176"
   style="stroke-width:0.352274" />
<path
   class="st4"
   d="m 61.950255,31.665015 h -0.317049 c 0,7.926161 -3.064784,15.359136 -8.665936,20.925062 -5.601154,5.601153 -13.03413,8.665937 -20.925062,8.665937 -7.890933,0 -15.359136,-3.064784 -20.925062,-8.665937 C 5.5159927,46.988924 2.4512111,39.555949 2.4512111,31.665015 c 0,-7.890933 3.0647816,-15.32391 8.6659349,-20.925064 5.601153,-5.6011522 13.034129,-8.6659343 20.925062,-8.6659343 7.926159,0 15.359136,3.0647821 20.925062,8.6659343 5.601152,5.601154 8.665936,13.034131 8.665936,20.925064 h 0.669315 c 0,-8.06707 -3.135234,-15.676183 -8.877292,-21.383019 -5.706837,-5.7068351 -13.31595,-8.8772991 -21.418248,-8.8772991 -8.102297,0 -15.676184,3.135236 -21.418246,8.8772991 -5.7068341,5.706836 -8.8772988,13.315949 -8.8772988,21.383019 0,8.102299 3.1352366,15.676185 8.8772988,21.418244 5.706836,5.706836 13.315949,8.877297 21.418246,8.877297 8.06707,0 15.676184,-3.135234 21.418248,-8.877297 5.706831,-5.706832 8.877292,-13.315945 8.877292,-21.418244 H 61.950255 M 32.006981,0.94674113 v -0.3522739 c -8.313661,0 -16.098912,3.24091877 -21.981884,9.08866307 C 4.1421259,15.566103 0.93643381,23.351354 0.93643381,31.665015 c 0,8.31366 3.24091909,16.134139 9.08866319,21.981886 5.882972,5.882969 13.668223,9.088658 21.981884,9.088658 8.313659,0 16.09891,-3.240917 21.981885,-9.088658 5.882969,-5.882974 9.088662,-13.668226 9.088662,-21.981886 0,-8.278434 -3.240921,-16.098912 -9.088662,-21.9818847 C 48.105891,3.800158 40.32064,0.59446723 32.006981,0.59446723 V 1.2637873 c 8.137525,0 15.746639,3.1704636 21.523926,8.9125267 5.742063,5.742063 8.912524,13.386404 8.912524,21.523928 0,8.137527 -3.170461,15.781868 -8.912524,21.523928 -5.74206,5.742063 -13.386401,8.912524 -21.523926,8.912524 -8.137524,0 -15.746638,-3.170461 -21.523927,-8.912524 C 4.7409909,47.48211 1.5705266,39.837769 1.5705266,31.700242 c 0,-8.137524 3.1704643,-15.746638 8.9125274,-21.523928 5.742062,-5.7420631 13.386403,-8.9125267 21.523927,-8.9125267 z"
   id="path178"
   style="stroke-width:0.352274" />















</svg>
